<svg width="175" height="165" viewBox="0 0 175 165" fill="none" xmlns="http://www.w3.org/2000/svg">
<path d="M136.083 8H38.9167C21.8419 8 8 20.9713 8 36.9722V128.028C8 144.029 21.8419 157 38.9167 157H136.083C153.158 157 167 144.029 167 128.028V36.9722C167 20.9713 153.158 8 136.083 8Z" fill="#1F4D3A"/>
<path d="M100.638 36.0579C110.638 32.0579 118.638 40.0579 115.638 49.0579C113.638 55.0579 105.638 58.0579 100.638 54.0579C97.6383 47.0579 96.6383 40.0579 100.638 36.0579Z" fill="#E7C97A"/>
<path d="M66 93.7812H56C54.3431 93.7812 53 95.1664 53 96.875V126.781C53 128.49 54.3431 129.875 56 129.875H66C67.6569 129.875 69 128.49 69 126.781V96.875C69 95.1664 67.6569 93.7812 66 93.7812Z" fill="#C9972B"/>
<path d="M89 79.3438H79C77.3431 79.3438 76 80.7289 76 82.4375V126.781C76 128.49 77.3431 129.875 79 129.875H89C90.6569 129.875 92 128.49 92 126.781V82.4375C92 80.7289 90.6569 79.3438 89 79.3438Z" fill="#C9972B"/>
<path d="M112 59.75H102C100.343 59.75 99 61.1351 99 62.8438V126.781C99 128.49 100.343 129.875 102 129.875H112C113.657 129.875 115 128.49 115 126.781V62.8438C115 61.1351 113.657 59.75 112 59.75Z" fill="#E7C97A"/>
<path d="M53 73.1562L79 50.4688L93 62.8438L123 38.0938" stroke="#FAF7F0" stroke-width="4.5" stroke-linecap="round" stroke-linejoin="round"/>
<path d="M109 38.0938H123V51.5" stroke="#FAF7F0" stroke-width="4.5" stroke-linecap="round" stroke-linejoin="round"/>
</svg>
